<svg width="206" height="206" viewBox="0 0 206 206" fill="none" xmlns="http://www.w3.org/2000/svg">
<path d="M32.0007 36.2612C31.7512 36.261 31.5062 36.1954 31.29 36.0708L20.7107 29.9665C20.4944 29.8413 20.3148 29.6613 20.1901 29.4447C20.0653 29.2281 19.9998 28.9825 20 28.7326V16.524C20.0003 16.2745 20.0661 16.0295 20.1908 15.8135C20.3155 15.5974 20.4948 15.4179 20.7107 15.293L31.29 9.18868C31.5062 9.06504 31.7509 9 32 9C32.2491 9 32.4938 9.06504 32.71 9.18868L43.2907 15.293C43.5063 15.4182 43.6852 15.5978 43.8096 15.8138C43.9341 16.0298 43.9997 16.2747 44 16.524V28.7398C43.9997 28.9891 43.9341 29.234 43.8096 29.45C43.6852 29.666 43.5063 29.8456 43.2907 29.9708L32.71 36.0751C32.494 36.1984 32.2494 36.2626 32.0007 36.2612ZM32.0007 9.86015C31.9043 9.85938 31.8095 9.88447 31.726 9.93282L21.1467 16.0371C21.0625 16.0855 20.9927 16.1555 20.9445 16.2397C20.8962 16.324 20.8712 16.4196 20.872 16.5167V28.7326C20.872 28.8289 20.8974 28.9236 20.9456 29.0071C20.9938 29.0905 21.0632 29.1598 21.1467 29.2078L31.726 35.3121C31.8094 35.3599 31.9039 35.3851 32 35.3851C32.0961 35.3851 32.1906 35.3599 32.274 35.3121L42.8547 29.2078C42.9379 29.1595 43.0069 29.0901 43.0549 29.0067C43.1028 28.9233 43.128 28.8288 43.128 28.7326V16.524C43.128 16.4278 43.1028 16.3332 43.0549 16.2498C43.0069 16.1664 42.9379 16.0971 42.8547 16.0487L32.274 9.94445C32.1922 9.89221 32.0977 9.86308 32.0007 9.86015Z" fill="white"/>
<path d="M32.0007 32.946C31.7675 32.9466 31.5384 32.8854 31.3365 32.7686L23.5434 28.2631C23.3425 28.1468 23.1757 27.9798 23.0597 27.7788C22.9436 27.5778 22.8824 27.3499 22.8821 27.1178V18.1242C22.8831 17.8923 22.9449 17.6647 23.0615 17.4642C23.178 17.2637 23.3452 17.0974 23.5463 16.9818L31.3365 12.4763C31.5374 12.3606 31.7652 12.2997 31.9971 12.2997C32.2289 12.2997 32.4567 12.3606 32.6576 12.4763L40.4522 16.9818C40.6528 17.0981 40.8193 17.2649 40.9354 17.4656C41.0514 17.6662 41.1128 17.8938 41.1135 18.1256V27.1251C41.1129 27.3571 41.0516 27.5849 40.9355 27.7859C40.8195 27.9868 40.6529 28.1538 40.4522 28.2704L32.6576 32.7759C32.4573 32.8889 32.2308 32.9476 32.0007 32.946ZM32.0007 13.1797C31.9217 13.1798 31.8441 13.2003 31.7754 13.2393L23.9823 17.7448C23.914 17.7844 23.8573 17.8412 23.8178 17.9096C23.7782 17.9779 23.7573 18.0554 23.757 18.1344V27.1338C23.757 27.213 23.7779 27.2908 23.8174 27.3594C23.8569 27.428 23.9138 27.485 23.9823 27.5248L31.7725 32.0129C31.8406 32.0529 31.9181 32.074 31.9971 32.074C32.076 32.074 32.1536 32.0529 32.2216 32.0129L40.0162 27.5073C40.0846 27.4678 40.1414 27.4111 40.181 27.3427C40.2205 27.2743 40.2414 27.1968 40.2415 27.1178V18.1242C40.2409 18.0453 40.2199 17.9679 40.1804 17.8996C40.1409 17.8313 40.0843 17.7745 40.0162 17.7347L32.2216 13.2291C32.1538 13.1927 32.0777 13.1742 32.0007 13.1753V13.1797Z" fill="white"/>
<path d="M31.9993 29.6264C31.7845 29.6262 31.5735 29.5696 31.3874 29.4622L26.3833 26.5743C26.1978 26.4665 26.0438 26.3119 25.9367 26.126C25.8296 25.9401 25.7731 25.7293 25.7729 25.5147V19.7433C25.773 19.5287 25.8294 19.3179 25.9365 19.1319C26.0436 18.946 26.1977 18.7914 26.3833 18.6838L31.3889 15.7871C31.5747 15.68 31.7855 15.6236 32 15.6236C32.2145 15.6236 32.4253 15.68 32.6112 15.7871L37.6152 18.6765C37.8023 18.7845 37.9574 18.9401 38.0649 19.1274C38.1724 19.3148 38.2283 19.5273 38.2271 19.7433V25.5133C38.2269 25.7279 38.1704 25.9386 38.0633 26.1245C37.9562 26.3105 37.8022 26.465 37.6167 26.5728L32.6112 29.4622C32.4252 29.5697 32.2141 29.6264 31.9993 29.6264ZM31.9993 16.4949C31.9381 16.4952 31.8781 16.5112 31.8249 16.5414L26.8194 19.4308C26.7662 19.462 26.7221 19.5066 26.6915 19.5602C26.6609 19.6137 26.6449 19.6743 26.645 19.736V25.5133C26.645 25.5749 26.6611 25.6355 26.6917 25.689C26.7223 25.7425 26.7663 25.7872 26.8194 25.8185L31.8249 28.7079C31.8781 28.7386 31.9385 28.7548 32 28.7548C32.0615 28.7548 32.1219 28.7386 32.1751 28.7079L37.1807 25.8185C37.2337 25.7872 37.2778 25.7425 37.3083 25.689C37.3389 25.6355 37.355 25.5749 37.3551 25.5133V19.7433C37.3553 19.6814 37.3392 19.6206 37.3083 19.567C37.2774 19.5134 37.2329 19.4689 37.1792 19.4381L32.1751 16.5458C32.1219 16.5139 32.0613 16.4963 31.9993 16.4949Z" fill="white"/>
</svg>
