<svg width="465" height="189" viewBox="0 0 465 189" fill="none" xmlns="http://www.w3.org/2000/svg">
<path d="M82.57 188.489C80.8534 188.489 79.1671 188.037 77.68 187.179L4.89 145.179C3.40164 144.318 2.16624 143.08 1.30789 141.589C0.449537 140.099 -0.00152815 138.409 3.88967e-06 136.689V52.6895C0.00197798 50.9731 0.454706 49.2873 1.31288 47.8008C2.17106 46.3144 3.40458 45.0794 4.89 44.2195L77.68 2.21946C79.1669 1.36683 80.851 0.918213 82.565 0.918213C84.279 0.918213 85.9631 1.36683 87.45 2.21946L160.25 44.2195C161.734 45.0809 162.966 46.3163 163.824 47.8024C164.682 49.2885 165.136 50.9735 165.14 52.6895V136.739C165.136 138.455 164.682 140.14 163.824 141.627C162.966 143.113 161.734 144.348 160.25 145.209L87.45 187.209C85.9642 188.058 84.2809 188.499 82.57 188.489ZM82.57 6.83946C81.9068 6.8356 81.2545 7.00817 80.68 7.33946L7.89 49.3395C7.31078 49.6727 6.83052 50.1538 6.49842 50.7337C6.16632 51.3135 5.99431 51.9713 6 52.6395V136.689C5.99962 137.353 6.17415 138.004 6.50598 138.578C6.83781 139.152 7.31521 139.629 7.89 139.959L80.68 181.959C81.2538 182.288 81.9036 182.461 82.565 182.461C83.2264 182.461 83.8762 182.288 84.45 181.959L157.25 139.959C157.823 139.627 158.3 139.15 158.631 138.577C158.963 138.003 159.138 137.352 159.14 136.689V52.6895C159.138 52.0267 158.963 51.376 158.631 50.8023C158.3 50.2285 157.823 49.7517 157.25 49.4195L84.45 7.41946C83.8872 7.06 83.2375 6.85958 82.57 6.83946Z" fill="#6CAADD"/>
<path d="M82.57 165.679C80.9656 165.684 79.3888 165.263 78 164.459L24.38 133.459C22.9989 132.661 21.8517 131.514 21.0532 130.133C20.2547 128.751 19.8329 127.185 19.83 125.589V63.6995C19.8367 62.1039 20.2623 60.538 21.0644 59.1586C21.8664 57.7792 23.0166 56.6346 24.4 55.8395L78 24.8395C79.3825 24.0436 80.9498 23.6247 82.545 23.6247C84.1402 23.6247 85.7075 24.0436 87.09 24.8395L140.72 55.8395C142.1 56.6396 143.246 57.7871 144.044 59.1679C144.842 60.5487 145.265 62.1145 145.27 63.7095V125.639C145.265 127.234 144.842 128.8 144.044 130.181C143.246 131.562 142.1 132.709 140.72 133.509L87.09 164.509C85.7112 165.287 84.153 165.691 82.57 165.679ZM82.57 29.6795C82.0252 29.679 81.4901 29.824 81.02 30.0995L27.4 61.0995C26.9301 61.3719 26.5398 61.7627 26.2678 62.2329C25.9959 62.7031 25.8518 63.2363 25.85 63.7795V125.709C25.8505 126.252 25.9942 126.784 26.2663 127.253C26.5385 127.722 26.9295 128.11 27.4 128.379L81.02 159.379C81.4894 159.652 82.0224 159.795 82.565 159.795C83.1076 159.795 83.6406 159.652 84.11 159.379L137.74 128.379C138.209 128.109 138.599 127.72 138.871 127.251C139.143 126.783 139.287 126.251 139.29 125.709V63.6995C139.286 63.1567 139.141 62.6243 138.87 62.1544C138.598 61.6846 138.209 61.2934 137.74 61.0195L84.11 30.0695C83.644 29.793 83.1118 29.6478 82.57 29.6495V29.6795Z" fill="#6CAADD"/>
<path d="M82.56 142.839C81.0819 142.838 79.6302 142.448 78.35 141.709L43.92 121.839C42.6428 121.099 41.5826 120.035 40.8456 118.756C40.1085 117.476 39.7203 116.026 39.72 114.549V74.8394C39.7213 73.3631 40.1099 71.913 40.8469 70.6338C41.5839 69.3546 42.6435 68.2911 43.92 67.5494L78.36 47.6194C79.6388 46.8823 81.0889 46.4943 82.565 46.4943C84.0411 46.4943 85.4912 46.8823 86.77 47.6194L121.21 67.4994C122.486 68.2411 123.546 69.3046 124.283 70.5838C125.02 71.863 125.409 73.3131 125.41 74.7894V114.539C125.41 116.016 125.022 117.466 124.284 118.746C123.547 120.025 122.487 121.089 121.21 121.829L86.77 141.709C85.4904 142.45 84.0383 142.839 82.56 142.839ZM82.56 52.4894C82.1392 52.4913 81.7259 52.6015 81.36 52.8094L46.92 72.6894C46.554 72.9042 46.2507 73.2111 46.0402 73.5795C45.8296 73.948 45.7193 74.3651 45.72 74.7894V114.539C45.7202 114.964 45.8311 115.38 46.0415 115.749C46.2519 116.117 46.5547 116.424 46.92 116.639L81.36 136.519C81.7264 136.731 82.142 136.842 82.565 136.842C82.988 136.842 83.4036 136.731 83.77 136.519L118.21 116.639C118.575 116.424 118.878 116.117 119.089 115.749C119.299 115.38 119.41 114.964 119.41 114.539V74.8394C119.412 74.4137 119.301 73.9951 119.088 73.6263C118.876 73.2574 118.569 72.9514 118.2 72.7394L83.77 52.8394C83.4039 52.6197 82.9869 52.4991 82.56 52.4894Z" fill="#6CAADD"/>
<path d="M218.43 73.3595C220.684 72.3507 222.578 70.6801 223.86 68.5695C225.161 66.296 225.812 63.7081 225.74 61.0895C225.802 58.4566 225.164 55.8545 223.89 53.5495C222.647 51.3815 220.779 49.6389 218.53 48.5495C215.883 47.3244 212.985 46.7386 210.07 46.8395H194.25C193.875 46.8395 193.515 46.9877 193.249 47.2518C192.983 47.516 192.833 47.8746 192.83 48.2495V89.0995C192.833 89.4743 192.983 89.833 193.249 90.0971C193.515 90.3612 193.875 90.5095 194.25 90.5095H200.65C200.836 90.5108 201.02 90.4753 201.193 90.405C201.365 90.3348 201.521 90.2311 201.653 90.1C201.785 89.969 201.89 89.8131 201.962 89.6414C202.033 89.4696 202.07 89.2855 202.07 89.0995V75.0195H208.82L216.69 89.7595C216.81 89.9865 216.99 90.1764 217.211 90.3085C217.431 90.4407 217.683 90.5102 217.94 90.5095H224.94C225.185 90.5091 225.426 90.4453 225.639 90.3242C225.853 90.203 226.031 90.0288 226.157 89.8183C226.283 89.6079 226.352 89.3684 226.358 89.1233C226.363 88.8782 226.306 88.6357 226.19 88.4195L218 73.5195C218.15 73.4595 218.3 73.4195 218.43 73.3595ZM202.07 54.3595H208.3C209.815 54.3115 211.323 54.5771 212.73 55.1395C213.828 55.5902 214.748 56.3873 215.35 57.4095C215.961 58.5338 216.261 59.8006 216.22 61.0795C216.264 62.3396 215.963 63.5879 215.35 64.6895C214.742 65.6749 213.824 66.4309 212.74 66.8395C211.339 67.3686 209.847 67.6166 208.35 67.5695H202.07V54.3595Z" fill="#6CAADD"/>
<path d="M246.24 90.5095H249.78C250.155 90.5095 250.515 90.3612 250.781 90.0971C251.047 89.833 251.197 89.4743 251.2 89.0995V62.8395H256.84C257.027 62.8408 257.212 62.805 257.385 62.7341C257.558 62.6632 257.715 62.5586 257.847 62.4265C257.979 62.2944 258.084 62.1373 258.155 61.9644C258.226 61.7916 258.261 61.6063 258.26 61.4195V59.1595C258.261 58.9726 258.226 58.7874 258.155 58.6145C258.084 58.4416 257.979 58.2845 257.847 58.1524C257.715 58.0203 257.558 57.9157 257.385 57.8448C257.212 57.7739 257.027 57.7381 256.84 57.7395H251.2V54.8395C251.124 53.6456 251.479 52.4641 252.2 51.5095C252.636 51.0877 253.16 50.7663 253.733 50.5677C254.306 50.3691 254.916 50.298 255.52 50.3595C256.096 50.334 256.672 50.3947 257.23 50.5395C257.369 50.6106 257.522 50.6484 257.678 50.6496C257.834 50.6508 257.989 50.6155 258.129 50.5465C258.268 50.4775 258.39 50.3767 258.484 50.2522C258.578 50.1277 258.642 49.9829 258.67 49.8295L259.48 47.0295C259.534 46.8482 259.551 46.6579 259.53 46.4699C259.509 46.2819 259.45 46.1002 259.356 45.9357C259.263 45.7712 259.137 45.6273 258.986 45.5128C258.836 45.3983 258.664 45.3155 258.48 45.2695L257.85 45.1195C256.772 44.8943 255.671 44.7903 254.57 44.8095C252.91 44.7919 251.266 45.133 249.75 45.8095C248.289 46.457 247.044 47.5082 246.16 48.8395C245.22 50.3738 244.754 52.1514 244.82 53.9495V57.7495H241.16C240.783 57.7495 240.422 57.8991 240.156 58.1654C239.89 58.4317 239.74 58.7928 239.74 59.1695V61.4395C239.745 61.8126 239.897 62.1686 240.163 62.4306C240.429 62.6926 240.787 62.8395 241.16 62.8395H244.82V89.0995C244.82 89.2855 244.857 89.4696 244.928 89.6414C245 89.8131 245.105 89.969 245.237 90.1C245.369 90.2311 245.525 90.3347 245.697 90.405C245.87 90.4753 246.054 90.5108 246.24 90.5095Z" fill="#6CAADD"/>
<path d="M265.19 89.0595C267.643 90.4495 270.415 91.1802 273.235 91.1802C276.055 91.1802 278.827 90.4495 281.28 89.0595C283.587 87.6421 285.438 85.5904 286.61 83.1495C287.93 80.3828 288.581 77.3442 288.51 74.2795C288.582 71.1986 287.931 68.1436 286.61 65.3595C285.441 62.9108 283.591 60.8517 281.28 59.4295C278.827 58.0394 276.055 57.3088 273.235 57.3088C270.415 57.3088 267.643 58.0394 265.19 59.4295C262.879 60.8517 261.029 62.9108 259.86 65.3595C258.539 68.1436 257.888 71.1986 257.96 74.2795C257.889 77.3442 258.54 80.3828 259.86 83.1495C261.032 85.5904 262.883 87.6421 265.19 89.0595ZM265.35 68.4795C265.915 66.8249 266.93 65.3602 268.28 64.2495C269.726 63.2086 271.463 62.6487 273.245 62.6487C275.027 62.6487 276.764 63.2086 278.21 64.2495C279.551 65.3642 280.559 66.8282 281.12 68.4795C282.387 72.2287 282.387 76.2902 281.12 80.0395C280.563 81.6847 279.555 83.1401 278.21 84.2395C276.759 85.2675 275.024 85.8197 273.245 85.8197C271.466 85.8197 269.731 85.2675 268.28 84.2395C266.926 83.1442 265.91 81.688 265.35 80.0395C264.083 76.2902 264.083 72.2287 265.35 68.4795Z" fill="#6CAADD"/>
<path d="M298.16 70.4995C298.136 69.1761 298.483 67.8724 299.162 66.7361C299.84 65.5997 300.824 64.676 302 64.0695C303.232 63.4199 304.608 63.0931 306 63.1195C306.669 63.1143 307.338 63.1611 308 63.2595C308.157 63.3076 308.324 63.3185 308.486 63.2911C308.648 63.2638 308.802 63.199 308.935 63.102C309.068 63.005 309.176 62.8783 309.252 62.7321C309.327 62.5858 309.368 62.424 309.37 62.2595V58.5695C309.372 58.3931 309.337 58.2182 309.268 58.0561C309.198 57.8939 309.096 57.748 308.967 57.6275C308.838 57.5071 308.686 57.4149 308.519 57.3567C308.353 57.2985 308.176 57.2756 308 57.2895C307.45 57.2895 307 57.2895 306.58 57.2895C304.748 57.2633 302.951 57.797 301.43 58.8195C299.927 59.8049 298.807 61.2771 298.26 62.9895H297.91V59.1595C297.911 58.9735 297.876 58.789 297.806 58.6168C297.735 58.4446 297.632 58.288 297.501 58.156C297.37 58.024 297.214 57.9192 297.042 57.8477C296.87 57.7763 296.686 57.7395 296.5 57.7395H293.2C293.013 57.7381 292.828 57.774 292.655 57.8449C292.482 57.9157 292.325 58.0203 292.193 58.1524C292.061 58.2845 291.956 58.4416 291.885 58.6145C291.814 58.7874 291.779 58.9726 291.78 59.1595V89.0995C291.78 89.2855 291.817 89.4697 291.888 89.6414C291.96 89.8131 292.065 89.969 292.197 90.1C292.328 90.2311 292.485 90.3348 292.657 90.405C292.83 90.4753 293.014 90.5108 293.2 90.5095H296.74C297.115 90.5095 297.475 90.3612 297.741 90.0971C298.007 89.833 298.157 89.4743 298.16 89.0995V70.4995Z" fill="#6CAADD"/>
<path d="M327 82.2095C326.934 83.9524 327.405 85.6736 328.35 87.1395C329.218 88.4286 330.441 89.4391 331.87 90.0495C333.352 90.6776 334.951 90.9811 336.56 90.9395C337.419 90.9457 338.277 90.8653 339.12 90.6995L339.36 90.6395C339.721 90.5536 340.035 90.3297 340.233 90.0157C340.431 89.7016 340.498 89.3225 340.42 88.9595C340.42 88.9595 339.79 86.1595 339.72 85.7895C339.701 85.6727 339.656 85.5616 339.589 85.4641C339.522 85.3665 339.434 85.2848 339.332 85.2248C339.23 85.1647 339.116 85.1277 338.998 85.1165C338.88 85.1052 338.762 85.1199 338.65 85.1595C338.209 85.2462 337.759 85.2831 337.31 85.2695C336.651 85.278 335.996 85.1627 335.38 84.9295C334.77 84.6912 334.262 84.2496 333.94 83.6795C333.514 82.8139 333.321 81.8523 333.38 80.8895V62.8395H338.69C338.876 62.8395 339.06 62.8027 339.232 62.7312C339.404 62.6597 339.56 62.555 339.691 62.423C339.822 62.291 339.925 62.1343 339.996 61.9621C340.066 61.7899 340.101 61.6055 340.1 61.4195V59.1595C340.101 58.9735 340.066 58.789 339.996 58.6168C339.925 58.4446 339.822 58.288 339.691 58.156C339.56 58.024 339.404 57.9192 339.232 57.8477C339.06 57.7763 338.876 57.7395 338.69 57.7395H333.38V51.3095C333.381 51.1226 333.346 50.9374 333.275 50.7645C333.204 50.5916 333.099 50.4345 332.967 50.3024C332.835 50.1703 332.678 50.0657 332.505 49.9949C332.332 49.924 332.147 49.8881 331.96 49.8895H328.42C328.043 49.8895 327.682 50.0391 327.416 50.3054C327.15 50.5717 327 50.9329 327 51.3095V57.7395H323.62C323.243 57.7395 322.882 57.8891 322.616 58.1554C322.35 58.4217 322.2 58.7829 322.2 59.1595V61.4395C322.205 61.8075 322.353 62.1591 322.612 62.4203C322.871 62.6814 323.222 62.8317 323.59 62.8395H327V82.2095Z" fill="#6CAADD"/>
<path d="M349.13 71.0594C349.078 69.5151 349.423 67.9832 350.13 66.6094C350.773 65.4326 351.746 64.4697 352.93 63.8394C354.181 63.168 355.581 62.824 357 62.8394C357.953 62.7867 358.906 62.9378 359.796 63.2827C360.686 63.6276 361.492 64.1583 362.16 64.8394C363.474 66.3983 364.133 68.4052 364 70.4394V89.0994C364 89.4734 364.149 89.832 364.413 90.0965C364.677 90.3609 365.036 90.5094 365.41 90.5094H369C369.375 90.5095 369.735 90.3612 370.001 90.0971C370.267 89.8329 370.417 89.4743 370.42 89.0994V69.6694C370.49 67.3128 370.004 64.9729 369 62.8394C368.145 61.0918 366.773 59.6498 365.07 58.7094C363.253 57.7534 361.223 57.2751 359.17 57.3194C357.009 57.2081 354.862 57.7368 353 58.8394C351.435 59.8579 350.209 61.3203 349.48 63.0394H349V48.2294C348.995 47.8641 348.848 47.515 348.591 47.2557C348.333 46.9964 347.985 46.8472 347.62 46.8394H344.16C343.975 46.8394 343.791 46.8759 343.62 46.9468C343.449 47.0176 343.294 47.1215 343.163 47.2524C343.032 47.3834 342.928 47.5388 342.857 47.7099C342.786 47.8809 342.75 48.0643 342.75 48.2494V89.0994C342.75 89.2846 342.786 89.468 342.857 89.639C342.928 89.8101 343.032 89.9655 343.163 90.0965C343.294 90.2274 343.449 90.3313 343.62 90.4021C343.791 90.473 343.975 90.5094 344.16 90.5094H347.71C348.085 90.5095 348.445 90.3612 348.711 90.0971C348.977 89.8329 349.127 89.4743 349.13 89.0994V71.0594Z" fill="#6CAADD"/>
<path d="M401.1 82.0195L397.78 81.4294C397.484 81.3766 397.178 81.4199 396.908 81.553C396.639 81.6862 396.418 81.9022 396.28 82.1695C395.943 82.7897 395.511 83.3532 395 83.8395C394.262 84.5455 393.378 85.0814 392.41 85.4095C391.348 85.7728 390.232 85.9521 389.11 85.9394C387.402 85.9757 385.714 85.5582 384.22 84.7295C382.816 83.8987 381.694 82.6654 381 81.1894C380.246 79.5806 379.854 77.8262 379.85 76.0494H401.72C402.095 76.0468 402.453 75.896 402.718 75.63C402.982 75.364 403.13 75.0043 403.13 74.6295V73.8395C403.224 71.2451 402.841 68.6556 402 66.1995C401.305 64.2794 400.187 62.54 398.73 61.1095C397.38 59.8191 395.766 58.8366 394 58.2295C392.275 57.6196 390.459 57.3084 388.63 57.3095C385.864 57.2237 383.133 57.9498 380.775 59.3981C378.417 60.8464 376.534 62.9536 375.36 65.4595C374.061 68.2363 373.418 71.2745 373.48 74.3395C373.41 77.4084 374.054 80.4516 375.36 83.2295C376.547 85.6656 378.416 87.7048 380.74 89.0995C383.275 90.5387 386.156 91.258 389.07 91.1794C391.25 91.2147 393.417 90.8416 395.46 90.0794C397.231 89.4069 398.83 88.3479 400.14 86.9795C400.971 86.0993 401.647 85.085 402.14 83.9795C402.227 83.7841 402.268 83.5716 402.26 83.358C402.253 83.1444 402.197 82.9353 402.097 82.7464C401.997 82.5576 401.855 82.3941 401.682 82.2681C401.509 82.1422 401.31 82.0572 401.1 82.0195ZM380.92 67.3095C381.628 65.9212 382.691 64.7448 384 63.8995C385.397 63.0013 387.03 62.5416 388.69 62.5795C390.204 62.5479 391.696 62.9393 393 63.7094C394.226 64.4689 395.22 65.552 395.87 66.8395C396.563 68.2256 396.906 69.7602 396.87 71.3095H379.87C379.931 69.9165 380.289 68.5527 380.92 67.3095Z" fill="#6CAADD"/>
<path d="M218.43 125.309C220.686 124.304 222.581 122.633 223.86 120.519C225.161 118.246 225.812 115.658 225.74 113.039C225.801 110.407 225.163 107.805 223.89 105.499C222.647 103.332 220.779 101.589 218.53 100.499C215.887 99.2572 212.989 98.6542 210.07 98.7395H194.25C193.873 98.7395 193.512 98.8891 193.246 99.1554C192.98 99.4217 192.83 99.7829 192.83 100.159V141.019C192.833 141.395 192.983 141.755 193.249 142.021C193.515 142.286 193.874 142.437 194.25 142.439H200.65C201.027 142.439 201.388 142.29 201.654 142.024C201.92 141.757 202.07 141.396 202.07 141.019V126.979H208.82L216.69 141.719C216.812 141.945 216.992 142.134 217.212 142.266C217.432 142.398 217.684 142.468 217.94 142.469H224.94C225.187 142.47 225.429 142.406 225.644 142.285C225.858 142.163 226.037 141.988 226.164 141.776C226.29 141.564 226.359 141.323 226.363 141.076C226.368 140.83 226.308 140.586 226.19 140.369L218 125.469C218.15 125.419 218.3 125.369 218.43 125.309ZM202.07 106.309H208.3C209.815 106.262 211.323 106.527 212.73 107.089C213.826 107.543 214.745 108.34 215.35 109.359C215.961 110.484 216.261 111.751 216.22 113.029C216.264 114.29 215.963 115.538 215.35 116.639C214.746 117.636 213.828 118.403 212.74 118.819C211.337 119.34 209.846 119.585 208.35 119.539H202.07V106.309Z" fill="#6CAADD"/>
<path d="M254.78 113.409C253.384 112.035 251.71 110.974 249.87 110.299C247.929 109.61 245.88 109.271 243.82 109.299C240.878 109.228 237.973 109.965 235.42 111.429C233.039 112.857 231.119 114.94 229.89 117.429C228.592 120.226 227.92 123.272 227.92 126.354C227.92 129.437 228.592 132.483 229.89 135.279C231.13 137.745 233.081 139.783 235.49 141.129C238.158 142.561 241.153 143.271 244.18 143.189C246.625 143.234 249.055 142.809 251.34 141.939C253.287 141.192 255.028 139.992 256.42 138.439C257.311 137.421 258.015 136.253 258.5 134.989C258.582 134.781 258.614 134.555 258.593 134.332C258.572 134.108 258.499 133.893 258.379 133.703C258.259 133.513 258.096 133.354 257.904 133.239C257.711 133.124 257.494 133.055 257.27 133.039L251.58 132.669C251.317 132.65 251.053 132.707 250.821 132.832C250.589 132.958 250.398 133.148 250.27 133.379C250.008 133.866 249.671 134.309 249.27 134.689C248.654 135.271 247.916 135.708 247.11 135.969C246.217 136.266 245.281 136.412 244.34 136.399C242.941 136.432 241.559 136.086 240.34 135.399C239.235 134.761 238.341 133.811 237.77 132.669C237.141 131.361 236.833 129.921 236.87 128.469H257.77C258.145 128.467 258.503 128.316 258.768 128.05C259.032 127.784 259.18 127.424 259.18 127.049V125.969C259.23 123.482 258.834 121.007 258.01 118.659C257.333 116.693 256.23 114.9 254.78 113.409ZM236.93 122.769C236.966 121.637 237.271 120.53 237.82 119.539C238.411 118.487 239.27 117.611 240.31 116.999C241.415 116.336 242.681 115.99 243.97 115.999C245.19 115.974 246.395 116.275 247.46 116.869C248.449 117.425 249.263 118.246 249.81 119.239C250.394 120.305 250.69 121.504 250.67 122.719L236.93 122.769Z" fill="#6CAADD"/>
<path d="M281 123.429L275 122.239C273.84 122.063 272.737 121.618 271.78 120.939C271.483 120.698 271.244 120.393 271.081 120.047C270.918 119.701 270.836 119.322 270.84 118.939C270.845 118.453 270.982 117.977 271.238 117.562C271.493 117.148 271.857 116.812 272.29 116.589C273.375 115.968 274.611 115.66 275.86 115.699C276.794 115.674 277.721 115.852 278.58 116.219C279.293 116.533 279.923 117.009 280.42 117.609C280.667 117.914 280.872 118.25 281.03 118.609C281.144 118.883 281.34 119.115 281.59 119.274C281.841 119.434 282.134 119.512 282.43 119.499L288.04 119.159C288.249 119.148 288.452 119.091 288.636 118.992C288.819 118.892 288.978 118.753 289.102 118.585C289.225 118.417 289.31 118.223 289.349 118.018C289.389 117.813 289.382 117.602 289.33 117.399C288.719 115.182 287.363 113.243 285.49 111.909C283.11 110.163 279.85 109.289 275.71 109.289C273.211 109.238 270.725 109.655 268.38 110.519C266.471 111.22 264.794 112.439 263.54 114.039C262.378 115.611 261.773 117.525 261.82 119.479C261.787 120.585 261.976 121.685 262.377 122.716C262.777 123.746 263.38 124.686 264.15 125.479C266.147 127.273 268.633 128.432 271.29 128.809L276.97 129.939C278.101 130.113 279.179 130.533 280.13 131.169C280.439 131.403 280.691 131.706 280.864 132.052C281.037 132.399 281.128 132.782 281.13 133.169C281.116 133.664 280.971 134.146 280.711 134.568C280.452 134.989 280.086 135.334 279.65 135.569C278.435 136.199 277.084 136.518 275.716 136.499C274.348 136.479 273.007 136.122 271.81 135.459C271.062 134.979 270.48 134.281 270.14 133.459C270.031 133.179 269.838 132.939 269.587 132.773C269.337 132.606 269.041 132.521 268.74 132.529L262.56 132.849C262.349 132.86 262.143 132.918 261.958 133.019C261.772 133.119 261.611 133.26 261.486 133.43C261.362 133.601 261.277 133.797 261.238 134.004C261.199 134.212 261.206 134.425 261.26 134.629C261.938 136.965 263.409 138.991 265.42 140.359C267.98 142.173 271.433 143.079 275.78 143.079C278.358 143.124 280.92 142.662 283.32 141.719C285.345 140.935 287.126 139.628 288.48 137.929C289.738 136.318 290.405 134.324 290.37 132.279C290.413 131.213 290.225 130.15 289.819 129.163C289.414 128.176 288.8 127.288 288.02 126.559C285.998 124.914 283.576 123.834 281 123.429Z" fill="#6CAADD"/>
<path d="M309.23 135.479C308.808 135.559 308.379 135.599 307.95 135.599C307.401 135.607 306.855 135.512 306.34 135.319C305.874 135.123 305.492 134.769 305.26 134.319C304.977 133.71 304.847 133.041 304.88 132.369V116.519H309.63C309.816 116.519 310 116.483 310.172 116.411C310.344 116.34 310.5 116.235 310.631 116.103C310.762 115.971 310.865 115.814 310.936 115.642C311.006 115.47 311.041 115.285 311.04 115.099V111.099C311.04 110.725 310.892 110.365 310.628 110.099C310.363 109.833 310.005 109.682 309.63 109.679H304.88V103.249C304.877 102.874 304.727 102.514 304.461 102.248C304.195 101.983 303.836 101.832 303.46 101.829H297.21C296.833 101.829 296.472 101.979 296.206 102.245C295.94 102.512 295.79 102.873 295.79 103.249V109.679H292.72C292.345 109.682 291.987 109.833 291.722 110.099C291.458 110.365 291.31 110.725 291.31 111.099V115.099C291.309 115.285 291.344 115.47 291.414 115.642C291.485 115.814 291.588 115.971 291.719 116.103C291.85 116.235 292.006 116.34 292.178 116.411C292.35 116.483 292.534 116.519 292.72 116.519H295.79V133.589C295.698 135.46 296.165 137.315 297.13 138.919C298.059 140.342 299.413 141.434 301 142.039C302.832 142.739 304.793 143.036 306.75 142.909C307.759 142.893 308.764 142.775 309.75 142.559L310.36 142.419C310.711 142.325 311.011 142.098 311.198 141.787C311.384 141.475 311.442 141.103 311.36 140.749C311.36 140.749 310.48 136.609 310.36 136.159C310.24 135.709 310 135.319 309.23 135.479Z" fill="#6CAADD"/>
<path d="M351.28 111.389C348.631 109.997 345.683 109.269 342.69 109.269C339.697 109.269 336.749 109.997 334.1 111.389C331.705 112.785 329.767 114.845 328.52 117.319C327.227 120.096 326.557 123.122 326.557 126.184C326.557 129.247 327.227 132.273 328.52 135.049C329.767 137.524 331.705 139.584 334.1 140.979C336.747 142.378 339.696 143.109 342.69 143.109C345.684 143.109 348.633 142.378 351.28 140.979C353.675 139.584 355.613 137.524 356.86 135.049C358.153 132.273 358.823 129.247 358.823 126.184C358.823 123.122 358.153 120.096 356.86 117.319C355.613 114.845 353.675 112.785 351.28 111.389ZM348.8 131.239C348.367 132.603 347.576 133.825 346.51 134.779C345.45 135.657 344.105 136.116 342.73 136.069C341.34 136.114 339.98 135.656 338.9 134.779C337.818 133.833 337.016 132.609 336.58 131.239C335.54 127.919 335.54 124.36 336.58 121.039C337.018 119.671 337.82 118.447 338.9 117.499C339.976 116.615 341.338 116.153 342.73 116.199C344.107 116.151 345.454 116.614 346.51 117.499C347.576 118.453 348.367 119.676 348.8 121.039C349.84 124.36 349.84 127.919 348.8 131.239Z" fill="#6CAADD"/>
<path d="M373.26 104.899C373.632 104.552 374.075 104.288 374.558 104.128C375.041 103.967 375.554 103.913 376.06 103.969C376.594 103.948 377.129 103.999 377.65 104.119C377.813 104.185 377.988 104.213 378.163 104.201C378.338 104.19 378.508 104.14 378.662 104.055C378.815 103.97 378.947 103.851 379.049 103.709C379.151 103.566 379.219 103.402 379.25 103.229L380.25 98.9895C380.296 98.8048 380.303 98.6128 380.273 98.425C380.242 98.2372 380.174 98.0576 380.072 97.8969C379.97 97.7362 379.837 97.5977 379.68 97.4899C379.523 97.3821 379.346 97.3071 379.16 97.2695L378 97.0395C376.735 96.819 375.454 96.7119 374.17 96.7195C372.262 96.686 370.371 97.086 368.64 97.8895C367.042 98.6562 365.709 99.8817 364.81 101.409C363.819 103.217 363.336 105.259 363.41 107.319V109.689H360.2C359.824 109.692 359.465 109.843 359.199 110.108C358.933 110.374 358.783 110.734 358.78 111.109V115.109C358.78 115.486 358.93 115.847 359.196 116.114C359.462 116.38 359.823 116.529 360.2 116.529H363.41V142.479H372.48V116.519H377.59C377.777 116.521 377.962 116.485 378.135 116.414C378.308 116.343 378.465 116.239 378.597 116.107C378.729 115.974 378.834 115.817 378.905 115.644C378.976 115.472 379.011 115.286 379.01 115.099V111.099C379.01 110.723 378.86 110.362 378.594 110.095C378.328 109.829 377.967 109.679 377.59 109.679H372.48V107.479C372.428 106.554 372.704 105.641 373.26 104.899Z" fill="#6CAADD"/>
<path d="M422.64 126.359C422.666 127.91 422.287 129.44 421.54 130.799C420.809 132.067 419.739 133.106 418.45 133.799C416.998 134.529 415.395 134.91 413.77 134.91C412.145 134.91 410.542 134.529 409.09 133.799C407.796 133.109 406.722 132.07 405.99 130.799C405.239 129.442 404.859 127.91 404.89 126.359V100.189C404.89 99.8128 404.74 99.4517 404.474 99.1854C404.208 98.9191 403.847 98.7694 403.47 98.7694H397.07C396.883 98.7681 396.698 98.8039 396.525 98.8748C396.352 98.9457 396.195 99.0503 396.063 99.1824C395.931 99.3145 395.826 99.4716 395.755 99.6445C395.684 99.8174 395.649 100.003 395.65 100.189V127.189C395.556 130.101 396.321 132.975 397.851 135.454C399.38 137.934 401.606 139.907 404.25 141.129C407.246 142.441 410.48 143.118 413.75 143.118C417.02 143.118 420.254 142.441 423.25 141.129C425.896 139.908 428.125 137.935 429.657 135.456C431.19 132.978 431.96 130.103 431.87 127.189V100.189C431.87 99.8128 431.72 99.4517 431.454 99.1854C431.188 98.9191 430.827 98.7694 430.45 98.7694H424.05C423.863 98.7681 423.678 98.8039 423.505 98.8748C423.332 98.9457 423.175 99.0503 423.043 99.1824C422.911 99.3145 422.806 99.4716 422.735 99.6445C422.664 99.8174 422.629 100.003 422.63 100.189L422.64 126.359Z" fill="#6CAADD"/>
<path d="M461.81 126.589C459.763 124.917 457.304 123.826 454.69 123.429L448.75 122.239C447.59 122.063 446.487 121.618 445.53 120.939C445.233 120.698 444.994 120.393 444.831 120.047C444.668 119.701 444.586 119.322 444.59 118.939C444.595 118.453 444.732 117.977 444.988 117.562C445.243 117.148 445.607 116.812 446.04 116.589C447.125 115.968 448.361 115.66 449.61 115.699C450.544 115.674 451.471 115.852 452.33 116.219C453.043 116.533 453.673 117.009 454.17 117.609C454.417 117.914 454.622 118.25 454.78 118.609C454.894 118.883 455.09 119.115 455.34 119.274C455.591 119.434 455.884 119.512 456.18 119.499L461.78 119.159C461.989 119.148 462.192 119.091 462.376 118.991C462.56 118.892 462.72 118.753 462.844 118.585C462.968 118.417 463.054 118.224 463.095 118.019C463.135 117.814 463.13 117.602 463.08 117.399C462.469 115.182 461.113 113.244 459.24 111.909C456.86 110.163 453.6 109.289 449.46 109.289C446.961 109.236 444.475 109.653 442.13 110.519C440.219 111.221 438.54 112.44 437.28 114.039C436.125 115.614 435.523 117.527 435.57 119.479C435.537 120.585 435.726 121.685 436.127 122.716C436.527 123.746 437.13 124.686 437.9 125.479C439.883 127.276 442.353 128.446 445 128.839L450.68 129.969C451.808 130.141 452.884 130.561 453.83 131.199C454.15 131.427 454.411 131.727 454.594 132.074C454.776 132.422 454.874 132.807 454.88 133.199C454.866 133.694 454.721 134.176 454.461 134.598C454.202 135.019 453.836 135.364 453.4 135.599C452.185 136.229 450.834 136.548 449.466 136.529C448.098 136.509 446.757 136.152 445.56 135.489C444.812 135.009 444.23 134.311 443.89 133.489C443.781 133.209 443.588 132.969 443.337 132.803C443.087 132.636 442.791 132.551 442.49 132.559L436.31 132.879C436.099 132.89 435.893 132.948 435.708 133.049C435.522 133.149 435.361 133.29 435.236 133.46C435.112 133.631 435.027 133.827 434.988 134.034C434.949 134.242 434.956 134.455 435.01 134.659C435.688 136.992 437.155 139.018 439.16 140.389C441.727 142.203 445.18 143.109 449.52 143.109C452.101 143.155 454.667 142.693 457.07 141.749C459.095 140.965 460.876 139.658 462.23 137.959C463.488 136.348 464.155 134.354 464.12 132.309C464.168 131.246 463.986 130.185 463.588 129.198C463.189 128.211 462.583 127.321 461.81 126.589Z" fill="#6CAADD"/>
</svg>
