<svg width="678" height="189" viewBox="0 0 678 189" fill="none" xmlns="http://www.w3.org/2000/svg">
<path d="M217.78 99.9195C219.977 98.9366 221.822 97.3076 223.07 95.2495C224.338 93.0338 224.972 90.5115 224.9 87.9595C224.962 85.3945 224.344 82.8588 223.11 80.6095C221.896 78.5024 220.072 76.8118 217.88 75.7595C215.305 74.5515 212.483 73.9625 209.64 74.0395H194.22C193.851 74.0395 193.498 74.1859 193.237 74.4466C192.976 74.7073 192.83 75.0608 192.83 75.4295V115.259C192.83 115.442 192.866 115.622 192.936 115.79C193.006 115.958 193.109 116.111 193.238 116.239C193.367 116.367 193.52 116.469 193.689 116.537C193.857 116.606 194.038 116.641 194.22 116.639H200.46C200.826 116.639 201.177 116.494 201.436 116.235C201.695 115.976 201.84 115.625 201.84 115.259V101.539H208.41L216.09 115.909C216.208 116.13 216.384 116.315 216.599 116.444C216.814 116.572 217.06 116.64 217.31 116.639H224.09C224.323 116.635 224.552 116.571 224.754 116.455C224.956 116.338 225.126 116.173 225.248 115.974C225.369 115.774 225.439 115.548 225.45 115.314C225.461 115.081 225.412 114.849 225.31 114.639L217.38 100.119C217.51 100.019 217.65 99.9795 217.78 99.9195ZM201.84 81.4095H207.91C209.386 81.3623 210.856 81.6175 212.23 82.1595C213.298 82.608 214.195 83.3858 214.79 84.3795C215.382 85.4775 215.672 86.7128 215.63 87.9595C215.673 89.184 215.383 90.3972 214.79 91.4695C214.196 92.437 213.3 93.182 212.24 93.5895C210.871 94.1061 209.413 94.3474 207.95 94.2995H201.84V81.4095Z" fill="#6CAADD"/>
<path d="M244.89 116.639H248.34C248.522 116.641 248.703 116.606 248.871 116.537C249.04 116.469 249.193 116.367 249.322 116.239C249.451 116.111 249.554 115.958 249.624 115.79C249.694 115.622 249.73 115.442 249.73 115.259V89.6795H255.23C255.596 89.6795 255.947 89.5341 256.206 89.2753C256.465 89.0165 256.61 88.6655 256.61 88.2995V86.0695C256.61 85.7035 256.465 85.3525 256.206 85.0937C255.947 84.8349 255.596 84.6895 255.23 84.6895H249.73V81.8395C249.664 80.6744 250.018 79.5244 250.73 78.5995C251.156 78.1871 251.666 77.8724 252.225 77.6773C252.785 77.4822 253.38 77.4112 253.97 77.4695C254.529 77.4487 255.088 77.5093 255.63 77.6495C255.766 77.7073 255.912 77.7345 256.06 77.7289C256.207 77.7234 256.351 77.6853 256.482 77.6175C256.613 77.5496 256.728 77.4536 256.817 77.3364C256.907 77.2192 256.969 77.0837 257 76.9395L257.79 74.2195C257.841 74.0402 257.856 73.8525 257.833 73.6674C257.81 73.4824 257.75 73.3039 257.657 73.1425C257.563 72.9811 257.439 72.8401 257.29 72.7279C257.141 72.6157 256.971 72.5346 256.79 72.4895L256.17 72.3495C255.118 72.1327 254.044 72.0321 252.97 72.0495C251.35 72.042 249.747 72.383 248.27 73.0495C246.848 73.6937 245.643 74.7356 244.8 76.0495C243.872 77.5472 243.416 79.2892 243.49 81.0495V84.7495H239.92C239.554 84.7495 239.203 84.8949 238.944 85.1537C238.685 85.4125 238.54 85.7635 238.54 86.1295V88.3595C238.54 88.7255 238.685 89.0765 238.944 89.3353C239.203 89.5941 239.554 89.7395 239.92 89.7395H243.49V115.319C243.506 115.678 243.661 116.017 243.922 116.264C244.183 116.51 244.531 116.645 244.89 116.639Z" fill="#6CAADD"/>
<path d="M263.37 115.219C265.762 116.57 268.463 117.279 271.21 117.279C273.957 117.279 276.658 116.57 279.05 115.219C281.295 113.832 283.098 111.834 284.25 109.459C285.47 106.732 286.1 103.777 286.1 100.789C286.1 97.8015 285.47 94.8472 284.25 92.1195C283.102 89.7374 281.298 87.7323 279.05 86.3395C276.658 84.9892 273.957 84.2797 271.21 84.2797C268.463 84.2797 265.762 84.9892 263.37 86.3395C261.117 87.7267 259.312 89.7333 258.17 92.1195C256.944 94.8455 256.31 97.8005 256.31 100.789C256.31 103.778 256.944 106.733 258.17 109.459C259.316 111.838 261.121 113.837 263.37 115.219ZM263.52 95.1595C264.072 93.5494 265.058 92.1235 266.37 91.0395C267.756 89.9642 269.477 89.4119 271.23 89.4795C272.971 89.4127 274.679 89.9655 276.05 91.0395C277.359 92.124 278.342 93.5501 278.89 95.1595C280.13 98.8139 280.13 102.775 278.89 106.429C278.344 108.032 277.36 109.449 276.05 110.519C274.674 111.582 272.968 112.128 271.23 112.059C269.48 112.129 267.76 111.585 266.37 110.519C265.057 109.449 264.069 108.032 263.52 106.429C262.294 102.773 262.294 98.8161 263.52 95.1595Z" fill="#6CAADD"/>
<path d="M295.5 97.1295C295.476 95.8232 295.823 94.537 296.5 93.4195C297.152 92.3295 298.089 91.4377 299.21 90.8395C300.418 90.2047 301.766 89.8848 303.13 89.9095C303.773 89.9063 304.415 89.9531 305.05 90.0495C305.205 90.1041 305.372 90.1195 305.534 90.0943C305.697 90.0692 305.851 90.0043 305.983 89.9053C306.114 89.8064 306.219 89.6765 306.289 89.5272C306.358 89.3779 306.389 89.2138 306.38 89.0495V85.4995C306.381 85.3341 306.35 85.1701 306.287 85.0172C306.224 84.8643 306.131 84.7255 306.013 84.609C305.896 84.4926 305.756 84.4007 305.603 84.339C305.45 84.2772 305.285 84.2468 305.12 84.2495C304.58 84.2495 304.12 84.2495 303.74 84.2495C301.961 84.2312 300.219 84.7505 298.74 85.7395C297.284 86.7124 296.196 88.1454 295.65 89.8095H295.32V86.1095C295.32 85.7435 295.175 85.3925 294.916 85.1337C294.657 84.8749 294.306 84.7295 293.94 84.7295H290.69C290.324 84.7295 289.973 84.8749 289.714 85.1337C289.455 85.3925 289.31 85.7435 289.31 86.1095V115.299C289.31 115.665 289.455 116.016 289.714 116.275C289.973 116.534 290.324 116.679 290.69 116.679H294.15C294.516 116.679 294.867 116.534 295.126 116.275C295.385 116.016 295.53 115.665 295.53 115.299L295.5 97.1295Z" fill="#6CAADD"/>
<path d="M323.59 108.549C323.521 110.246 323.979 111.923 324.9 113.349C325.743 114.607 326.935 115.59 328.33 116.179C329.773 116.795 331.332 117.092 332.9 117.049C333.739 117.053 334.576 116.976 335.4 116.819L335.63 116.759C335.978 116.672 336.278 116.451 336.466 116.144C336.653 115.837 336.712 115.469 336.63 115.119C336.63 115.119 336.02 112.389 335.96 112.029C335.939 111.916 335.894 111.808 335.827 111.714C335.761 111.62 335.675 111.541 335.575 111.483C335.475 111.425 335.364 111.389 335.25 111.378C335.135 111.368 335.019 111.381 334.91 111.419C334.478 111.498 334.039 111.531 333.6 111.519C332.959 111.525 332.323 111.417 331.72 111.199C331.122 110.965 330.624 110.53 330.31 109.969C329.898 109.128 329.712 108.194 329.77 107.259V89.6794H335C335.182 89.6807 335.363 89.646 335.531 89.5773C335.7 89.5085 335.853 89.4071 335.982 89.2788C336.111 89.1505 336.214 88.9979 336.284 88.8299C336.354 88.6618 336.39 88.4815 336.39 88.2994V86.0694C336.39 85.8874 336.354 85.7071 336.284 85.539C336.214 85.3709 336.111 85.2183 335.982 85.0901C335.853 84.9618 335.7 84.8604 335.531 84.7916C335.363 84.7228 335.182 84.6881 335 84.6894H329.8V78.4194C329.8 78.0534 329.655 77.7024 329.396 77.4436C329.137 77.1848 328.786 77.0394 328.42 77.0394H325C324.634 77.0394 324.283 77.1848 324.024 77.4436C323.765 77.7024 323.62 78.0534 323.62 78.4194V84.6894H320.32C319.954 84.6894 319.603 84.8348 319.344 85.0936C319.085 85.3524 318.94 85.7034 318.94 86.0694V88.2994C318.94 88.6654 319.085 89.0164 319.344 89.2752C319.603 89.534 319.954 89.6794 320.32 89.6794H323.62L323.59 108.549Z" fill="#6CAADD"/>
<path d="M345.18 97.6695C345.14 96.1614 345.484 94.6678 346.18 93.3295C346.796 92.1702 347.743 91.2201 348.9 90.5995C350.113 89.9579 351.468 89.6345 352.84 89.6595C353.768 89.6194 354.693 89.777 355.555 90.1218C356.417 90.4667 357.196 90.9908 357.84 91.6595C359.124 93.1783 359.773 95.1343 359.65 97.1195V115.309C359.65 115.675 359.795 116.026 360.054 116.285C360.313 116.544 360.664 116.689 361.03 116.689H364.48C364.846 116.689 365.197 116.544 365.456 116.285C365.715 116.026 365.86 115.675 365.86 115.309V96.3195C365.939 94.02 365.473 91.7345 364.5 89.6495C363.665 87.9574 362.332 86.5615 360.68 85.6495C358.931 84.7243 356.978 84.2532 355 84.2795C352.896 84.1881 350.81 84.7128 349 85.7895C347.477 86.7879 346.284 88.2144 345.57 89.8895H345.18V75.4195C345.18 75.2374 345.144 75.0571 345.074 74.889C345.004 74.721 344.901 74.5684 344.772 74.4401C344.643 74.3118 344.49 74.2104 344.321 74.1416C344.153 74.0729 343.972 74.0381 343.79 74.0395H340.42C340.235 74.0341 340.052 74.0659 339.88 74.1328C339.708 74.1998 339.551 74.3006 339.418 74.4292C339.286 74.5579 339.181 74.7119 339.109 74.882C339.037 75.052 339 75.2348 339 75.4195V115.259C339 115.625 339.145 115.976 339.404 116.235C339.663 116.494 340.014 116.639 340.38 116.639H343.84C344.206 116.639 344.557 116.494 344.816 116.235C345.075 115.976 345.22 115.625 345.22 115.259L345.18 97.6695Z" fill="#6CAADD"/>
<path d="M395.84 108.359L392.61 107.779C392.32 107.729 392.022 107.771 391.758 107.9C391.494 108.03 391.277 108.239 391.14 108.499C390.827 109.098 390.418 109.642 389.93 110.109C389.212 110.797 388.352 111.32 387.41 111.639C386.373 111.99 385.284 112.163 384.19 112.149C382.527 112.185 380.884 111.778 379.43 110.969C378.054 110.174 376.949 108.982 376.26 107.549C375.519 105.987 375.136 104.279 375.14 102.549H396.45C396.632 102.551 396.813 102.516 396.981 102.447C397.15 102.379 397.303 102.277 397.432 102.149C397.561 102.021 397.664 101.868 397.734 101.7C397.804 101.532 397.84 101.352 397.84 101.169V100.339C397.903 97.8254 397.507 95.321 396.67 92.9495C396 91.0644 394.913 89.3551 393.49 87.9495C392.186 86.701 390.632 85.7432 388.93 85.1395C387.247 84.5443 385.475 84.2432 383.69 84.2495C380.952 84.1871 378.254 84.9163 375.92 86.3495C373.689 87.7733 371.904 89.7974 370.77 92.1895C369.55 94.9136 368.92 97.8647 368.92 100.849C368.92 103.834 369.55 106.785 370.77 109.509C371.919 111.888 373.741 113.877 376.01 115.229C378.483 116.625 381.292 117.316 384.13 117.229C386.256 117.268 388.369 116.905 390.36 116.159C392.083 115.514 393.638 114.489 394.91 113.159C395.741 112.279 396.417 111.265 396.91 110.159C396.974 109.971 396.996 109.771 396.975 109.573C396.954 109.376 396.89 109.185 396.788 109.014C396.687 108.843 396.549 108.696 396.386 108.583C396.222 108.47 396.036 108.394 395.84 108.359ZM376.17 94.0195C376.857 92.6633 377.893 91.5141 379.17 90.6895C380.529 89.8191 382.117 89.3735 383.73 89.4095C385.23 89.3653 386.711 89.7504 388 90.5195C389.189 91.2428 390.155 92.2811 390.79 93.5195C391.477 94.8683 391.821 96.366 391.79 97.8795H375.16C375.219 96.5358 375.564 95.22 376.17 94.0195Z" fill="#6CAADD"/>
<path d="M438 99.9395C440.197 98.9567 442.042 97.3276 443.29 95.2695C444.558 93.0538 445.192 90.5315 445.12 87.9795C445.184 85.4131 444.562 82.8761 443.32 80.6295C442.107 78.5251 440.288 76.8351 438.1 75.7795C435.525 74.5726 432.703 73.9836 429.86 74.0595H414.46C414.278 74.0595 414.098 74.0955 413.93 74.1655C413.761 74.2354 413.609 74.338 413.481 74.4672C413.352 74.5964 413.251 74.7497 413.182 74.9183C413.113 75.0869 413.079 75.2674 413.08 75.4495V115.279C413.08 115.645 413.225 115.996 413.484 116.255C413.743 116.514 414.094 116.659 414.46 116.659H420.71C421.076 116.659 421.427 116.514 421.686 116.255C421.945 115.996 422.09 115.645 422.09 115.279V101.559H428.66L436.34 115.929C436.458 116.15 436.634 116.335 436.849 116.464C437.064 116.592 437.31 116.66 437.56 116.659H444.34C444.573 116.655 444.802 116.591 445.004 116.475C445.206 116.358 445.376 116.193 445.498 115.994C445.619 115.794 445.689 115.568 445.7 115.335C445.711 115.101 445.662 114.869 445.56 114.659L437.63 100.139C437.76 100.039 437.9 99.9995 438 99.9395ZM422.09 81.4295H428.16C429.637 81.3812 431.108 81.64 432.48 82.1895C433.534 82.6384 434.417 83.4128 435 84.3995C435.592 85.4975 435.882 86.7328 435.84 87.9795C435.883 89.204 435.593 90.4172 435 91.4895C434.406 92.457 433.51 93.202 432.45 93.6095C431.081 94.1262 429.623 94.3674 428.16 94.3195H422.05L422.09 81.4295Z" fill="#6CAADD"/>
<path d="M473.46 88.3295C472.098 87.0005 470.469 85.9777 468.68 85.3295C466.789 84.6451 464.791 84.3064 462.78 84.3295C459.914 84.259 457.084 84.9787 454.6 86.4095C452.279 87.7824 450.404 89.7964 449.2 92.2095C447.942 94.9373 447.29 97.9055 447.29 100.909C447.29 103.913 447.942 106.882 449.2 109.609C450.413 112.01 452.314 113.994 454.66 115.309C457.262 116.7 460.181 117.389 463.13 117.309C465.519 117.359 467.896 116.948 470.13 116.099C472.026 115.369 473.722 114.2 475.08 112.689C475.94 111.696 476.617 110.559 477.08 109.329C477.158 109.125 477.188 108.905 477.167 108.688C477.145 108.47 477.074 108.26 476.957 108.075C476.841 107.889 476.683 107.734 476.496 107.62C476.309 107.506 476.098 107.438 475.88 107.419L470.34 107.059C470.083 107.039 469.825 107.093 469.598 107.216C469.371 107.338 469.184 107.523 469.06 107.749C468.795 108.226 468.458 108.658 468.06 109.029C467.464 109.601 466.746 110.028 465.96 110.279C465.089 110.568 464.177 110.709 463.26 110.699C461.916 110.736 460.586 110.411 459.41 109.759C458.33 109.142 457.46 108.216 456.91 107.099C456.29 105.823 455.985 104.418 456.02 102.999H476.4C476.766 102.999 477.117 102.854 477.376 102.595C477.635 102.336 477.78 101.985 477.78 101.619V100.619C477.831 98.1961 477.442 95.7835 476.63 93.4995C475.973 91.5608 474.89 89.7942 473.46 88.3295ZM456.06 97.4595C456.1 96.3547 456.402 95.2753 456.94 94.3095C457.512 93.2854 458.348 92.4327 459.36 91.8395C460.426 91.2401 461.626 90.9178 462.849 90.902C464.071 90.8863 465.279 91.1777 466.36 91.7495C467.32 92.3 468.112 93.1021 468.65 94.0695C469.222 95.1064 469.512 96.2754 469.49 97.4595H456.06Z" fill="#6CAADD"/>
<path d="M499 98.1095L493.22 96.9395C492.087 96.7719 491.011 96.3365 490.08 95.6695C489.791 95.4382 489.558 95.1444 489.398 94.8101C489.239 94.4758 489.157 94.1098 489.16 93.7395C489.163 93.2628 489.297 92.7961 489.548 92.3904C489.798 91.9848 490.155 91.6558 490.58 91.4395C491.635 90.8386 492.836 90.5409 494.05 90.5795C494.96 90.5561 495.864 90.7301 496.7 91.0895C497.395 91.3969 498.01 91.8586 498.5 92.4395C498.74 92.7469 498.942 93.0828 499.1 93.4395C499.211 93.7054 499.401 93.9312 499.644 94.0866C499.887 94.242 500.172 94.3197 500.46 94.3095L505.92 93.9695C506.123 93.9596 506.322 93.9046 506.501 93.8084C506.68 93.7123 506.836 93.5775 506.956 93.4138C507.077 93.2501 507.16 93.0615 507.198 92.8619C507.237 92.6622 507.231 92.4564 507.18 92.2595C506.6 90.0734 505.278 88.1571 503.44 86.8395C501.12 85.1395 497.94 84.2895 493.9 84.2895C491.466 84.2381 489.044 84.6452 486.76 85.4895C484.883 86.1678 483.233 87.3597 482 88.9295C480.866 90.4638 480.275 92.332 480.32 94.2395C480.282 95.3229 480.464 96.4028 480.856 97.4136C481.248 98.4244 481.841 99.345 482.6 100.119C484.559 101.874 486.996 103.005 489.6 103.369L495.13 104.469C496.233 104.634 497.286 105.044 498.21 105.669C498.522 105.901 498.775 106.202 498.949 106.55C499.123 106.897 499.212 107.281 499.21 107.669C499.194 108.152 499.052 108.623 498.798 109.033C498.543 109.444 498.185 109.78 497.76 110.009C496.577 110.624 495.26 110.936 493.927 110.918C492.595 110.901 491.287 110.554 490.12 109.909C489.386 109.426 488.82 108.728 488.5 107.909C488.393 107.635 488.204 107.401 487.959 107.238C487.714 107.075 487.424 106.992 487.13 106.999L481.13 107.319C480.924 107.329 480.724 107.385 480.542 107.482C480.361 107.579 480.204 107.715 480.082 107.881C479.96 108.047 479.877 108.238 479.839 108.44C479.8 108.642 479.808 108.851 479.86 109.049C480.524 111.322 481.956 113.294 483.91 114.629C486.41 116.396 489.777 117.279 494.01 117.279C496.523 117.327 499.021 116.878 501.36 115.959C503.322 115.19 505.046 113.917 506.36 112.269C507.585 110.697 508.234 108.752 508.2 106.759C508.242 105.722 508.06 104.687 507.666 103.726C507.273 102.765 506.677 101.9 505.92 101.189C503.934 99.5565 501.543 98.4921 499 98.1095Z" fill="#6CAADD"/>
<path d="M526.54 109.839C526.127 109.911 525.709 109.948 525.29 109.949C524.754 109.96 524.221 109.868 523.72 109.679C523.267 109.504 522.894 109.17 522.67 108.739C522.391 108.143 522.264 107.487 522.3 106.829V91.3694H526.93C527.296 91.3694 527.647 91.2241 527.906 90.9653C528.165 90.7065 528.31 90.3554 528.31 89.9894V86.0894C528.31 85.7234 528.165 85.3724 527.906 85.1136C527.647 84.8548 527.296 84.7094 526.93 84.7094H522.3V78.4394C522.3 78.0734 522.155 77.7224 521.896 77.4636C521.637 77.2048 521.286 77.0594 520.92 77.0594H514.82C514.454 77.0594 514.103 77.2048 513.844 77.4636C513.585 77.7224 513.44 78.0734 513.44 78.4394V84.7094H510.44C510.074 84.7094 509.723 84.8548 509.464 85.1136C509.205 85.3724 509.06 85.7234 509.06 86.0894V89.9894C509.06 90.3554 509.205 90.7065 509.464 90.9653C509.723 91.2241 510.074 91.3694 510.44 91.3694H513.44V108.009C513.353 109.834 513.809 111.644 514.75 113.209C515.65 114.574 516.954 115.623 518.48 116.209C520.268 116.891 522.18 117.184 524.09 117.069C525.075 117.043 526.056 116.925 527.02 116.719L527.61 116.579C527.953 116.489 528.248 116.271 528.434 115.969C528.62 115.668 528.683 115.306 528.61 114.959C528.61 114.959 527.75 110.959 527.67 110.479C527.59 109.999 527.31 109.689 526.54 109.839Z" fill="#6CAADD"/>
<path d="M567.53 86.3695C564.948 85.0135 562.076 84.3051 559.16 84.3051C556.244 84.3051 553.372 85.0135 550.79 86.3695C548.452 87.7246 546.561 89.7337 545.35 92.1495C544.085 94.8542 543.43 97.8037 543.43 100.789C543.43 103.775 544.085 106.725 545.35 109.429C546.561 111.845 548.452 113.854 550.79 115.209C553.372 116.565 556.244 117.274 559.16 117.274C562.076 117.274 564.948 116.565 567.53 115.209C569.863 113.848 571.752 111.841 572.97 109.429C574.228 106.723 574.88 103.774 574.88 100.789C574.88 97.8048 574.228 94.8561 572.97 92.1495C571.752 89.7383 569.863 87.731 567.53 86.3695ZM565.12 105.719C564.694 107.046 563.921 108.234 562.88 109.159C561.849 110.015 560.539 110.464 559.2 110.419C557.842 110.464 556.514 110.016 555.46 109.159C554.403 108.244 553.621 107.053 553.2 105.719C552.187 102.484 552.187 99.0153 553.2 95.7795C553.624 94.4417 554.405 93.2453 555.46 92.3195C556.514 91.4628 557.842 91.0154 559.2 91.0595C560.539 91.0153 561.849 91.4636 562.88 92.3195C563.919 93.2549 564.692 94.4486 565.12 95.7795C566.12 99.0173 566.12 102.482 565.12 105.719Z" fill="#6CAADD"/>
<path d="M589 80.0395C589.362 79.7022 589.792 79.4472 590.262 79.2919C590.731 79.1365 591.229 79.0845 591.72 79.1395C592.241 79.1152 592.762 79.1623 593.27 79.2795C593.429 79.343 593.6 79.3703 593.771 79.3594C593.942 79.3484 594.108 79.2995 594.257 79.2161C594.407 79.1327 594.536 79.0171 594.635 78.8775C594.734 78.738 594.801 78.5781 594.83 78.4095L595.83 74.2795C595.873 74.0995 595.879 73.9127 595.849 73.7302C595.818 73.5477 595.752 73.3731 595.653 73.2166C595.554 73.0602 595.425 72.925 595.274 72.819C595.122 72.713 594.951 72.6384 594.77 72.5995L593.62 72.3795C592.389 72.1624 591.14 72.0586 589.89 72.0695C588.03 72.0367 586.187 72.4265 584.5 73.2095C582.942 73.9543 581.643 75.149 580.77 76.6395C579.804 78.4012 579.334 80.3918 579.41 82.3995V84.7095H576.27C575.904 84.7095 575.553 84.8549 575.294 85.1137C575.035 85.3725 574.89 85.7235 574.89 86.0895V89.9895C574.89 90.3555 575.035 90.7065 575.294 90.9653C575.553 91.2241 575.904 91.3695 576.27 91.3695H579.41V116.659H588.25V91.3695H593.25C593.616 91.3695 593.967 91.2241 594.226 90.9653C594.485 90.7065 594.63 90.3555 594.63 89.9895V86.0895C594.63 85.7235 594.485 85.3725 594.226 85.1137C593.967 84.8549 593.616 84.7095 593.25 84.7095H588.25V82.5695C588.187 81.6633 588.453 80.7649 589 80.0395Z" fill="#6CAADD"/>
<path d="M637.09 100.959C637.116 102.468 636.747 103.957 636.02 105.279C635.319 106.54 634.28 107.579 633.02 108.279C631.605 108.989 630.043 109.359 628.46 109.359C626.877 109.359 625.315 108.989 623.9 108.279C622.64 107.578 621.602 106.539 620.9 105.279C620.173 103.957 619.804 102.468 619.83 100.959V75.4494C619.831 75.2674 619.797 75.0869 619.728 74.9183C619.659 74.7497 619.558 74.5964 619.429 74.4672C619.301 74.338 619.148 74.2354 618.98 74.1654C618.812 74.0955 618.632 74.0594 618.45 74.0594H612.21C612.028 74.0594 611.848 74.0955 611.68 74.1654C611.511 74.2354 611.359 74.338 611.231 74.4672C611.102 74.5964 611.001 74.7497 610.932 74.9183C610.863 75.0869 610.829 75.2674 610.83 75.4494V101.729C610.737 104.567 611.482 107.37 612.973 109.787C614.463 112.204 616.632 114.128 619.21 115.319C622.131 116.599 625.286 117.26 628.475 117.26C631.664 117.26 634.819 116.599 637.74 115.319C640.32 114.129 642.492 112.206 643.986 109.789C645.479 107.372 646.229 104.569 646.14 101.729V75.4494C646.141 75.2674 646.107 75.0869 646.038 74.9183C645.969 74.7497 645.868 74.5964 645.739 74.4672C645.611 74.338 645.458 74.2354 645.29 74.1654C645.122 74.0955 644.942 74.0594 644.76 74.0594H638.52C638.338 74.0594 638.158 74.0955 637.99 74.1654C637.821 74.2354 637.669 74.338 637.541 74.4672C637.412 74.5964 637.311 74.7497 637.242 74.9183C637.173 75.0869 637.139 75.2674 637.14 75.4494L637.09 100.959Z" fill="#6CAADD"/>
<path d="M675.27 101.189C673.276 99.5515 670.873 98.4869 668.32 98.1094L662.54 96.9394C661.408 96.77 660.332 96.3348 659.4 95.6695C659.112 95.4377 658.88 95.1435 658.723 94.8092C658.565 94.4749 658.486 94.1091 658.49 93.7395C658.493 93.264 658.626 92.7985 658.875 92.3931C659.123 91.9878 659.478 91.658 659.9 91.4394C660.955 90.8385 662.156 90.5409 663.37 90.5794C664.28 90.556 665.184 90.73 666.02 91.0894C666.718 91.3905 667.335 91.8532 667.82 92.4394C668.068 92.7417 668.27 93.0786 668.42 93.4394C668.533 93.7046 668.723 93.9295 668.965 94.0847C669.208 94.24 669.492 94.3183 669.78 94.3095L675.24 93.9694C675.443 93.9595 675.641 93.9045 675.821 93.8084C676 93.7123 676.156 93.5775 676.276 93.4138C676.397 93.25 676.48 93.0615 676.518 92.8618C676.557 92.6622 676.551 92.4564 676.5 92.2594C675.92 90.0734 674.598 88.1571 672.76 86.8395C670.44 85.1395 667.263 84.2894 663.23 84.2894C660.793 84.2383 658.367 84.6453 656.08 85.4895C654.22 86.1744 652.586 87.3617 651.36 88.9195C650.233 90.4568 649.646 92.3237 649.69 94.2294C649.654 95.3167 649.841 96.3998 650.238 97.4125C650.635 98.4252 651.235 99.3463 652 100.119C653.943 101.869 656.362 103 658.95 103.369L664.48 104.469C665.584 104.632 666.637 105.043 667.56 105.669C667.873 105.9 668.128 106.201 668.301 106.549C668.475 106.896 668.564 107.281 668.56 107.669C668.549 108.152 668.41 108.623 668.157 109.035C667.904 109.446 667.546 109.782 667.12 110.009C665.98 110.667 664.675 110.983 663.36 110.919C661.993 110.977 660.64 110.629 659.47 109.919C658.736 109.436 658.17 108.738 657.85 107.919C657.744 107.644 657.556 107.409 657.31 107.246C657.065 107.083 656.775 107 656.48 107.009L650.48 107.329C650.274 107.339 650.074 107.395 649.892 107.492C649.711 107.589 649.554 107.725 649.432 107.891C649.31 108.057 649.227 108.248 649.189 108.45C649.15 108.652 649.158 108.861 649.21 109.059C649.874 111.332 651.306 113.304 653.26 114.639C655.767 116.406 659.133 117.289 663.36 117.289C665.873 117.338 668.371 116.889 670.71 115.969C672.671 115.198 674.395 113.925 675.71 112.279C676.931 110.705 677.58 108.762 677.55 106.769C677.592 105.73 677.411 104.694 677.017 103.731C676.624 102.768 676.028 101.902 675.27 101.189Z" fill="#6CAADD"/>
<path d="M82.57 188.489C80.8534 188.489 79.1671 188.037 77.68 187.179L4.89 145.179C3.40164 144.318 2.16624 143.08 1.30789 141.589C0.449537 140.099 -0.00152815 138.409 3.88967e-06 136.689V52.6895C0.00197798 50.9731 0.454706 49.2873 1.31288 47.8008C2.17106 46.3144 3.40458 45.0794 4.89 44.2195L77.68 2.21946C79.1669 1.36683 80.851 0.918213 82.565 0.918213C84.279 0.918213 85.9631 1.36683 87.45 2.21946L160.25 44.2195C161.734 45.0809 162.966 46.3163 163.824 47.8024C164.682 49.2885 165.136 50.9735 165.14 52.6895V136.739C165.136 138.455 164.682 140.14 163.824 141.627C162.966 143.113 161.734 144.348 160.25 145.209L87.45 187.209C85.9642 188.058 84.2809 188.499 82.57 188.489ZM82.57 6.83946C81.9068 6.8356 81.2545 7.00817 80.68 7.33946L7.89 49.3395C7.31078 49.6727 6.83052 50.1538 6.49842 50.7337C6.16632 51.3135 5.99431 51.9713 6 52.6395V136.689C5.99962 137.353 6.17415 138.004 6.50598 138.578C6.83781 139.152 7.31521 139.629 7.89 139.959L80.68 181.959C81.2538 182.288 81.9036 182.461 82.565 182.461C83.2264 182.461 83.8762 182.288 84.45 181.959L157.25 139.959C157.823 139.627 158.3 139.15 158.631 138.577C158.963 138.003 159.138 137.352 159.14 136.689V52.6895C159.138 52.0267 158.963 51.376 158.631 50.8023C158.3 50.2285 157.823 49.7517 157.25 49.4195L84.45 7.41946C83.8872 7.06 83.2375 6.85958 82.57 6.83946Z" fill="#6CAADD"/>
<path d="M82.57 165.679C80.9657 165.684 79.3888 165.263 78 164.459L24.38 133.459C22.9989 132.661 21.8517 131.514 21.0532 130.133C20.2547 128.751 19.8329 127.185 19.83 125.589V63.6994C19.8367 62.1038 20.2624 60.538 21.0644 59.1586C21.8664 57.7792 23.0167 56.6346 24.4 55.8394L78 24.8394C79.3825 24.0436 80.9498 23.6247 82.545 23.6247C84.1402 23.6247 85.7075 24.0436 87.09 24.8394L140.72 55.8394C142.1 56.6395 143.246 57.7871 144.044 59.1679C144.842 60.5487 145.265 62.1145 145.27 63.7094V125.639C145.265 127.234 144.842 128.8 144.044 130.181C143.246 131.562 142.1 132.709 140.72 133.509L87.09 164.509C85.7113 165.287 84.153 165.691 82.57 165.679ZM82.57 29.6794C82.0252 29.6789 81.4901 29.8239 81.02 30.0994L27.4 61.0994C26.9301 61.3719 26.5398 61.7627 26.2678 62.2329C25.9959 62.7031 25.8518 63.2363 25.85 63.7794V125.709C25.8506 126.252 25.9942 126.784 26.2663 127.253C26.5385 127.721 26.9295 128.11 27.4 128.379L81.02 159.379C81.4894 159.652 82.0224 159.795 82.565 159.795C83.1076 159.795 83.6406 159.652 84.11 159.379L137.74 128.379C138.209 128.109 138.599 127.72 138.871 127.251C139.143 126.783 139.287 126.251 139.29 125.709V63.6994C139.286 63.1567 139.141 62.6242 138.87 62.1544C138.598 61.6845 138.209 61.2934 137.74 61.0194L84.11 30.0694C83.644 29.7929 83.1119 29.6478 82.57 29.6494V29.6794Z" fill="#6CAADD"/>
<path d="M82.56 142.839C81.0819 142.838 79.6302 142.448 78.35 141.709L43.92 121.839C42.6428 121.099 41.5826 120.035 40.8456 118.756C40.1085 117.476 39.7203 116.026 39.72 114.549V74.8394C39.7213 73.3631 40.1099 71.913 40.8469 70.6338C41.5839 69.3546 42.6435 68.2911 43.92 67.5494L78.36 47.6194C79.6388 46.8823 81.0889 46.4943 82.565 46.4943C84.0411 46.4943 85.4912 46.8823 86.77 47.6194L121.21 67.4994C122.486 68.2411 123.546 69.3046 124.283 70.5838C125.02 71.863 125.409 73.3131 125.41 74.7894V114.539C125.41 116.016 125.022 117.466 124.284 118.746C123.547 120.025 122.487 121.089 121.21 121.829L86.77 141.709C85.4904 142.45 84.0383 142.839 82.56 142.839ZM82.56 52.4894C82.1392 52.4913 81.7259 52.6015 81.36 52.8094L46.92 72.6894C46.554 72.9042 46.2507 73.2111 46.0402 73.5795C45.8296 73.948 45.7193 74.3651 45.72 74.7894V114.539C45.7202 114.964 45.8311 115.38 46.0415 115.749C46.2519 116.117 46.5547 116.424 46.92 116.639L81.36 136.519C81.7264 136.731 82.142 136.842 82.565 136.842C82.988 136.842 83.4036 136.731 83.77 136.519L118.21 116.639C118.575 116.424 118.878 116.117 119.089 115.749C119.299 115.38 119.41 114.964 119.41 114.539V74.8394C119.412 74.4137 119.301 73.9951 119.088 73.6263C118.876 73.2574 118.569 72.9514 118.2 72.7394L83.77 52.8394C83.4039 52.6197 82.9869 52.4991 82.56 52.4894Z" fill="#6CAADD"/>
</svg>
